<svg xmlns="http://www.w3.org/2000/svg" viewBox="0 0 1200 340" role="img" aria-labelledby="title desc">
  <title id="title">君子 Junzi</title>
  <desc id="desc">道法势术器五层构成的人工智能伙伴人格系统。</desc>
  <defs>
    <linearGradient id="paper" x1="0" x2="1" y1="0" y2="1">
      <stop stop-color="#f7f1e5"/>
      <stop offset="1" stop-color="#e7dcc9"/>
    </linearGradient>
    <filter id="shadow" x="-20%" y="-20%" width="140%" height="140%">
      <feDropShadow dx="0" dy="12" stdDeviation="14" flood-color="#3f2b20" flood-opacity=".12"/>
    </filter>
    <pattern id="grain" width="36" height="36" patternUnits="userSpaceOnUse">
      <circle cx="5" cy="7" r=".6" fill="#2b2d29" opacity=".08"/>
      <circle cx="25" cy="19" r=".5" fill="#922d25" opacity=".06"/>
    </pattern>
  </defs>
  <rect width="1200" height="340" rx="18" fill="url(#paper)"/>
  <rect width="1200" height="340" rx="18" fill="url(#grain)"/>
  <path d="M0 284H1200" stroke="#922d25" stroke-width="5"/>
  <path d="M0 294H1200" stroke="#20221f" stroke-width="46"/>
  <g transform="translate(66 48)" filter="url(#shadow)">
    <rect width="210" height="210" rx="28" fill="#f6efe1" stroke="#922d25" stroke-width="10"/>
    <path d="M38 152h134M48 126h114M62 100h86M78 74h54M96 48h18" fill="none" stroke="#922d25" stroke-width="8" stroke-linecap="round"/>
    <circle cx="105" cy="27" r="9" fill="#922d25"/>
    <text x="105" y="192" text-anchor="middle" fill="#922d25" font-family="serif" font-size="24" font-weight="700" letter-spacing="9">君子</text>
  </g>
  <g transform="translate(330 70)">
    <text fill="#20221f" font-family="serif" font-size="72" font-weight="700">君子</text>
    <text x="184" y="-3" fill="#922d25" font-family="serif" font-size="23" letter-spacing="8">JUNZI</text>
    <text y="70" fill="#4f514b" font-family="sans-serif" font-size="20" letter-spacing="2">立于求真 · 成于实践</text>
    <text y="112" fill="#68685f" font-family="sans-serif" font-size="15">一个开放、独立、厚德且笃行的 AI 伙伴人格系统</text>
  </g>
  <g transform="translate(340 206)" font-family="serif" text-anchor="middle">
    <g transform="translate(0 0)"><circle r="28" fill="#922d25"/><text y="8" fill="#fff" font-size="22">道</text><text y="48" fill="#5f6059" font-size="12">立心</text></g>
    <path d="M32 0H126" stroke="#9b8a74" stroke-width="1"/>
    <g transform="translate(158 0)"><circle r="28" fill="#a6502d"/><text y="8" fill="#fff" font-size="22">法</text><text y="48" fill="#5f6059" font-size="12">明知</text></g>
    <path d="M190 0H284" stroke="#9b8a74" stroke-width="1"/>
    <g transform="translate(316 0)"><circle r="28" fill="#8a642f"/><text y="8" fill="#fff" font-size="22">势</text><text y="48" fill="#5f6059" font-size="12">察变</text></g>
    <path d="M348 0H442" stroke="#9b8a74" stroke-width="1"/>
    <g transform="translate(474 0)"><circle r="28" fill="#546246"/><text y="8" fill="#fff" font-size="22">术</text><text y="48" fill="#5f6059" font-size="12">成事</text></g>
    <path d="M506 0H600" stroke="#9b8a74" stroke-width="1"/>
    <g transform="translate(632 0)"><circle r="28" fill="#394f52"/><text y="8" fill="#fff" font-size="22">器</text><text y="48" fill="#5f6059" font-size="12">驭用</text></g>
  </g>
  <text x="1134" y="322" text-anchor="end" fill="#d7cec0" font-family="serif" font-size="12" letter-spacing="3">FYAPENG · 2026</text>
</svg>
